<?xml version="1.0" standalone="no"?>
<!DOCTYPE svg PUBLIC "-//W3C//DTD SVG 1.1//EN" "http://www.w3.org/Graphics/SVG/1.1/DTD/svg11.dtd" >
<svg xmlns="http://www.w3.org/2000/svg" xmlns:xlink="http://www.w3.org/1999/xlink" version="1.1" viewBox="-10 0 1044 1024">
   <path fill="currentColor"
d="M512 819q-104 0 -199 -40.5t-163.5 -109t-109 -163.5t-40.5 -199t40.5 -199t109 -163.5t163.5 -109t199 -40.5t199 40.5t163.5 109t109 163.5t40.5 199t-40.5 199t-109 163.5t-163.5 109t-199 40.5zM512 -77q-104 0 -192.5 51.5t-140 140t-51.5 192.5t51.5 192.5t140 140
t192.5 51.5t192.5 -51.5t140 -140t51.5 -192.5t-51.5 -192.5t-140 -140t-192.5 -51.5zM687 354q-10 10 -28 15l-177 177q-17 17 -41 17t-41 -17t-17 -41t17 -41l158 -157l-158 -158q-17 -17 -17 -41t17 -41t41 -17t41 17l178 178q17 4 27 14q19 19 16 48q3 28 -16 47z" />
</svg>
