<?xml version="1.0" standalone="no"?>
<!DOCTYPE svg PUBLIC "-//W3C//DTD SVG 1.1//EN" "http://www.w3.org/Graphics/SVG/1.1/DTD/svg11.dtd" >
<svg xmlns="http://www.w3.org/2000/svg" xmlns:xlink="http://www.w3.org/1999/xlink" version="1.1" viewBox="-10 0 1034 1024">
   <path fill="currentColor"
d="M896 819h-768q-26 0 -45 -19t-19 -45v-448q0 -27 19 -45.5t45 -18.5v0h256h320v-128q0 -80 -56 -136t-135.5 -56t-136 56t-56.5 136h-128q0 -87 43 -160.5t116.5 -116.5t160.5 -43t160.5 43t116.5 116.5t43 160.5v128h64q27 0 45.5 18.5t18.5 45.5v448q0 26 -18.5 45
t-45.5 19zM640 435q0 -53 -37.5 -90.5t-90.5 -37.5t-90.5 37.5t-37.5 90.5q0 40 22.5 72t58.5 47l-81 201h256l-81 -201q36 -15 58.5 -47t22.5 -72z" />
</svg>
