<?xml version="1.0" standalone="no"?>
<!DOCTYPE svg PUBLIC "-//W3C//DTD SVG 1.1//EN" "http://www.w3.org/Graphics/SVG/1.1/DTD/svg11.dtd" >
<svg xmlns="http://www.w3.org/2000/svg" xmlns:xlink="http://www.w3.org/1999/xlink" version="1.1" viewBox="-10 0 1044 1024">
   <path fill="currentColor"
d="M992 819h-352v-128q0 -53 -37.5 -90.5t-90.5 -37.5t-90.5 37.5t-37.5 90.5v128h-352q-13 0 -22.5 -9.5t-9.5 -22.5v-480v-32v-96h64v32q0 13 9.5 22.5t22.5 9.5t22.5 -9.5t9.5 -22.5v-32h64v32q0 13 9.5 22.5t22.5 9.5t22.5 -9.5t9.5 -22.5v-32h64v-192h-32
q-13 0 -22.5 -9.5t-9.5 -22.5v-128q0 -13 9.5 -22.5t22.5 -9.5h32v32q0 13 9.5 22.5t22.5 9.5t22.5 -9.5t9.5 -22.5v-32h64v32q0 13 9.5 22.5t22.5 9.5h64q13 0 22.5 -9.5t9.5 -22.5v-32h64v32q0 13 9.5 22.5t22.5 9.5t22.5 -9.5t9.5 -22.5v-32h32q13 0 22.5 9.5t9.5 22.5
v128q0 13 -9.5 22.5t-22.5 9.5h-32v192h64v32q0 13 9.5 22.5t22.5 9.5t22.5 -9.5t9.5 -22.5v-32h64v32q0 13 9.5 22.5t22.5 9.5t22.5 -9.5t9.5 -22.5v-32h64v96v32v480q0 13 -9.5 22.5t-22.5 9.5zM256 435q0 -26 -19 -45t-45.5 -19t-45 19t-18.5 45v64h128v-64zM576 51
q0 -26 -19 -45t-45.5 -19t-45 19t-18.5 45v64h128v-64zM896 435q0 -26 -19 -45t-45.5 -19t-45 19t-18.5 45v64h128v-64z" />
</svg>
