<?xml version="1.0" standalone="no"?>
<!DOCTYPE svg PUBLIC "-//W3C//DTD SVG 1.1//EN" "http://www.w3.org/Graphics/SVG/1.1/DTD/svg11.dtd" >
<svg xmlns="http://www.w3.org/2000/svg" xmlns:xlink="http://www.w3.org/1999/xlink" version="1.1" viewBox="-10 0 1034 1024">
   <path fill="currentColor"
d="M672 819h-480q-26 0 -45 -19t-19 -45v-896q0 -27 18.5 -45.5t45.5 -18.5h640q27 0 45.5 18.5t18.5 45.5v736q0 93 -65.5 158.5t-158.5 65.5zM640.5 691q26.5 0 45 -19t18.5 -45.5t-18.5 -45t-45 -18.5t-45.5 18.5t-19 45t19 45.5t45.5 19zM192 515v32q0 7 4.5 11.5
t11.5 4.5h48v48q0 7 4.5 11.5t11.5 4.5h32q7 0 11.5 -4.5t4.5 -11.5v-48h48q7 0 11.5 -4.5t4.5 -11.5v-32q0 -7 -4.5 -11.5t-11.5 -4.5h-48v-48q0 -7 -4.5 -11.5t-11.5 -4.5h-32q-7 0 -11.5 4.5t-4.5 11.5v48h-48q-7 0 -11.5 4.5t-4.5 11.5zM768 -45q0 -13 -9.5 -22.5
t-22.5 -9.5h-448q-13 0 -22.5 9.5t-9.5 22.5v320q0 13 9.5 22.5t22.5 9.5h448q13 0 22.5 -9.5t9.5 -22.5v-320zM768.5 435q-26.5 0 -45.5 18.5t-19 45t19 45.5t45.5 19t45 -19t18.5 -45.5t-18.5 -45t-45 -18.5z" />
</svg>
