<?xml version="1.0" standalone="no"?>
<!DOCTYPE svg PUBLIC "-//W3C//DTD SVG 1.1//EN" "http://www.w3.org/Graphics/SVG/1.1/DTD/svg11.dtd" >
<svg xmlns="http://www.w3.org/2000/svg" xmlns:xlink="http://www.w3.org/1999/xlink" version="1.1" viewBox="-10 0 1044 1024">
   <path fill="currentColor"
d="M1024 371v320q0 26 -19 45t-45 19h-896q-26 0 -45 -19t-19 -45v-320q0 -26 19 -45t45 -19q-26 0 -45 -18.5t-19 -45.5v-320q0 -26 19 -45t45 -19h896q26 0 45 19t19 45v320q0 27 -19 45.5t-45 18.5q27 0 45.5 18.5t18.5 45.5zM864 627q13 0 22.5 -9.5t9.5 -22.5
t-9.5 -22.5t-22.5 -9.5t-22.5 9.5t-9.5 22.5t9.5 22.5t22.5 9.5zM256 515q0 -7 -4.5 -11.5t-11.5 -4.5h-48v-48q0 -7 -4.5 -11.5t-11.5 -4.5h-32q-7 0 -11.5 4.5t-4.5 11.5v48h-48q-7 0 -11.5 4.5t-4.5 11.5v32q0 7 4.5 11.5t11.5 4.5h48v48q0 7 4.5 11.5t11.5 4.5h32
q7 0 11.5 -4.5t4.5 -11.5v-48h48q7 0 11.5 -4.5t4.5 -11.5v-32zM704 -45q0 -13 -9.5 -22.5t-22.5 -9.5h-320q-13 0 -22.5 9.5t-9.5 22.5v256q0 13 9.5 22.5t22.5 9.5h320q13 0 22.5 -9.5t9.5 -22.5v-256zM704 403q0 -13 -9.5 -22.5t-22.5 -9.5h-320q-13 0 -22.5 9.5
t-9.5 22.5v256q0 13 9.5 22.5t22.5 9.5h320q13 0 22.5 -9.5t9.5 -22.5v-256zM800 499q-13 0 -22.5 9.5t-9.5 22.5t9.5 22.5t22.5 9.5t22.5 -9.5t9.5 -22.5t-9.5 -22.5t-22.5 -9.5zM864 435q-13 0 -22.5 9.5t-9.5 22.5t9.5 22.5t22.5 9.5t22.5 -9.5t9.5 -22.5t-9.5 -22.5
t-22.5 -9.5zM928 499q-13 0 -22.5 9.5t-9.5 22.5t9.5 22.5t22.5 9.5t22.5 -9.5t9.5 -22.5t-9.5 -22.5t-22.5 -9.5z" />
</svg>
