<?xml version="1.0" standalone="no"?>
<!DOCTYPE svg PUBLIC "-//W3C//DTD SVG 1.1//EN" "http://www.w3.org/Graphics/SVG/1.1/DTD/svg11.dtd" >
<svg xmlns="http://www.w3.org/2000/svg" xmlns:xlink="http://www.w3.org/1999/xlink" version="1.1" viewBox="-10 0 1044 1024">
   <path fill="currentColor"
d="M960 691v-384h-128v384h-64h-448h-64v-384h-128v384h-64v-640h64v192h128h576h128v-192h64v640h-64zM576 307v128h-64v-128h-64v192h192v-192h-64zM896 -77h64v128h-64v-128zM768 51h64v128h-576v-128h64v-128h-128v-64h704v64h-128v128zM128 51v-128h64v128h-64z
M960 755h-128v-64h128v64zM256 755h-128v-64h128v64z" />
</svg>
