<?xml version="1.0" standalone="no"?>
<!DOCTYPE svg PUBLIC "-//W3C//DTD SVG 1.1//EN" "http://www.w3.org/Graphics/SVG/1.1/DTD/svg11.dtd" >
<svg xmlns="http://www.w3.org/2000/svg" xmlns:xlink="http://www.w3.org/1999/xlink" version="1.1" viewBox="-10 0 1044 1024">
   <path fill="currentColor"
d="M992 691q13 0 22.5 9.5t9.5 22.5v64q0 13 -9.5 22.5t-22.5 9.5h-960q-13 0 -22.5 -9.5t-9.5 -22.5v-64q0 -13 9.5 -22.5t22.5 -9.5h32v-512h-32q-13 0 -22.5 -9.5t-9.5 -22.5v-64q0 -13 9.5 -22.5t22.5 -9.5h64h32l362 -251q22 -11 44 0l362 251h32h64q13 0 22.5 9.5
t9.5 22.5v64q0 13 -9.5 22.5t-22.5 9.5h-32v512h32zM256 179h-64v512h64v-512zM448 179h-64v512h64v-512zM576 691h64v-512h-64v512zM832 179h-64v512h64v-512z" />
</svg>
