<?xml version="1.0" standalone="no"?>
<!DOCTYPE svg PUBLIC "-//W3C//DTD SVG 1.1//EN" "http://www.w3.org/Graphics/SVG/1.1/DTD/svg11.dtd" >
<svg xmlns="http://www.w3.org/2000/svg" xmlns:xlink="http://www.w3.org/1999/xlink" version="1.1" viewBox="-11 0 1045 1024">
   <path fill="currentColor"
d="M1016 371h-568v64h480q13 0 22.5 9.5t9.5 22.5v320q0 13 -9.5 22.5t-22.5 9.5h-672v-160q0 -13 -9.5 -22.5t-22.5 -9.5t-22.5 9.5t-9.5 22.5v160h-160q-13 0 -22.5 -9.5t-9.5 -22.5v-510q-1 -16 8 -27l184 -177v-86h-96q-13 0 -22.5 -9.5t-9.5 -22.5t9.5 -22.5t22.5 -9.5
h96v-96q0 -13 9.5 -22.5t22.5 -9.5t22.5 9.5t9.5 22.5v96h96q13 0 22.5 9.5t9.5 22.5t-9.5 22.5t-22.5 9.5h-96v86l177 170h476q16 0 27 16l84 96q5 7 3.5 11.5t-7.5 4.5zM832 659q0 13 9.5 22.5t22.5 9.5t22.5 -9.5t9.5 -22.5v-64q0 -13 -9.5 -22.5t-23 -9.5t-22.5 9.5
t-9 22.5v64zM704 659q0 13 9.5 22.5t22.5 9.5t22.5 -9.5t9.5 -22.5v-64q0 -13 -9.5 -22.5t-22.5 -9.5t-22.5 9.5t-9.5 22.5v64zM576 659q0 13 9.5 22.5t22.5 9.5t22.5 -9.5t9.5 -22.5v-64q0 -13 -9.5 -22.5t-22.5 -9.5t-22.5 9.5t-9.5 22.5v64z" />
</svg>
