<?xml version="1.0" standalone="no"?>
<!DOCTYPE svg PUBLIC "-//W3C//DTD SVG 1.1//EN" "http://www.w3.org/Graphics/SVG/1.1/DTD/svg11.dtd" >
<svg xmlns="http://www.w3.org/2000/svg" xmlns:xlink="http://www.w3.org/1999/xlink" version="1.1" viewBox="-10 0 1044 1024">
   <path fill="currentColor"
d="M512 819q-145 -36 -262 -135.5t-183.5 -242.5t-66.5 -299v-283q290 -64 512 -64t512 64v283q0 156 -66.5 299t-183.5 242.5t-262 135.5zM320 -13q-53 0 -90.5 19t-37.5 45.5t37.5 45t90.5 18.5t90.5 -18.5t37.5 -45t-37.5 -45.5t-90.5 -19zM704 -13q-53 0 -90.5 19
t-37.5 45.5t37.5 45t90.5 18.5t90.5 -18.5t37.5 -45t-37.5 -45.5t-90.5 -19zM512 435q-60 0 -171 -68q-82 -50 -104 -56q-43 -7 -45 49q0 37 49.5 85t126.5 83t144 35t144 -35t126.5 -83t49.5 -85q0 -52 -31 -51q-24 0 -103 49q-104 64 -157 74q-15 3 -29 3z" />
</svg>
