<?xml version="1.0" standalone="no"?>
<!DOCTYPE svg PUBLIC "-//W3C//DTD SVG 1.1//EN" "http://www.w3.org/Graphics/SVG/1.1/DTD/svg11.dtd" >
<!--
2023-4-1: Created with FontForge (http://fontforge.org)
-->
<svg xmlns="http://www.w3.org/2000/svg" xmlns:xlink="http://www.w3.org/1999/xlink" version="1.1">
<metadata>
Created by FontForge 20230101 at Sat Apr 01 22:07:30 2023
 By GreyError-D
Just a merge to One File.
</metadata>
<defs>
<font id="NineNeins-Glyph" horiz-adv-x="1000" vert-adv-y="1000" >
  <font-face 
    font-family="NineNeins"
    font-weight="400"
    font-stretch="normal"
    units-per-em="1000"
    panose-1="2 0 5 9 0 0 0 0 0 0"
    ascent="800"
    descent="-200"
    bbox="116 6 884 774"
    underline-thickness="50"
    underline-position="-100"
    unicode-range="U+0001-0001"
  />
    <missing-glyph />
    <glyph glyph-name="HomI" 
d="M884 6h-295l-23 256h-132l-23 -256h-295l237 768h114l-11 -192h88l-11 192h114zM453 518l-14 -192h122l-14 192h-94z" />
    <glyph glyph-name="MenuBook" 
d="M678 215c0 -50 26 -97 68 -117v-17c-105 0 -252 -75 -252 -75s-147 75 -252 75v13c35 13 64 42 75 81c4 13 6 27 6 40c0 54 -32 103 -81 121v134c105 0 252 -64 252 -64s147 64 252 64v-139c-42 -20 -68 -66 -68 -116zM794 313c50 0 90 -43 90 -98s-40 -99 -90 -99
s-90 44 -90 99s40 98 90 98zM206 313c50 0 90 -43 90 -98s-40 -99 -90 -99s-90 44 -90 99s40 98 90 98zM415 465c-20 6 -38 12 -56 16c-7 25 -11 52 -11 79c0 120 69 213 153 213s154 -93 154 -213c0 -25 -3 -51 -10 -75c-22 -5 -46 -12 -71 -20c-36 -11 -66 -22 -80 -28
c-14 6 -43 17 -79 28z" />
    <glyph glyph-name="SSaint" 
d="M740 486c-22 0 -43 4 -62 14s-37 24 -50 40l-229 -113c3 -13 5 -26 5 -37s-2 -24 -5 -37l229 -113c14 17 31 31 50 40s40 14 62 14c40 0 74 -14 102 -42s42 -61 42 -101s-14 -74 -42 -102s-62 -43 -102 -43c-39 0 -73 14 -101 42s-43 63 -43 102l-253 123
c-25 -18 -53 -27 -83 -27c-40 0 -74 15 -102 43s-42 61 -42 101s14 74 42 102s62 42 102 42c30 0 58 -9 83 -26l253 122c0 39 15 74 43 102s62 42 101 42c40 0 74 -14 102 -42s42 -62 42 -102s-14 -74 -42 -102s-62 -42 -102 -42z" />
    <glyph glyph-name="Gab" 
d="M711 661c0 0 78 -32 132 -70c25 -18 41 -51 41 -88c0 -36 -16 -69 -40 -87l-206 -148l131 -179h72c24 0 43 -25 43 -55c0 -15 -10 -28 -22 -28h-120l-158 216c0 6 1 12 1 18c0 82 -41 129 -55 142c-25 24 -55 35 -84 35s-58 -11 -83 -35l-46 -45c-6 -5 -8 -14 -8 -22
c0 -6 0 -11 3 -16c4 -7 12 -11 18 -11c4 0 8 1 12 5l44 42c18 17 40 27 62 27c12 0 23 -2 34 -8c39 -21 61 -69 61 -116c0 -23 -5 -47 -16 -67l-48 -83h106c24 0 43 -24 43 -54c0 -15 -9 -28 -21 -28h-405c-44 0 -85 44 -85 110c0 285 169 519 385 545c9 64 53 113 105 113
s95 -49 104 -113zM607 595c18 0 31 19 31 42s-13 41 -31 41s-32 -18 -32 -41s14 -42 32 -42z" />
    <glyph glyph-name="Minds" 
d="M807 391c-50 -33 -89 -64 -115 -91s-39 -54 -39 -78c0 -6 -3 -12 -11 -17s-17 -7 -27 -7h-230c-10 0 -19 2 -27 7s-11 11 -11 17c0 24 -13 51 -39 78s-65 58 -115 91c-51 42 -77 90 -77 143c0 43 18 83 52 120s81 66 140 87s122 32 192 32s133 -11 192 -32
s106 -50 140 -87s51 -77 51 -120c0 -53 -25 -101 -76 -143zM385 150h230c10 0 19 -2 27 -7s11 -11 11 -17s-3 -12 -11 -17s-17 -7 -27 -7h-230c-10 0 -19 2 -27 7s-11 11 -11 17s3 12 11 17s17 7 27 7zM500 6c-42 0 -78 6 -108 15s-45 20 -45 33h306c0 -13 -15 -24 -45 -33
s-66 -15 -108 -15z" />
    <glyph glyph-name="uni0007" 
d="M595 6c0 1 1 2 1 3v4c0 43 -5 86 -15 130s-24 76 -41 97c65 6 115 25 149 58s51 76 51 129c0 46 -16 82 -48 107v69c0 6 -3 11 -8 16s-11 8 -16 8c-6 0 -36 -17 -89 -53c-23 3 -50 5 -79 5c-28 0 -55 -2 -79 -5c-53 36 -83 53 -89 53c-5 0 -11 -2 -16 -8s-8 -11 -8 -16
s0 -16 -1 -34s-2 -30 -2 -38c-29 -24 -44 -59 -44 -104c0 -53 16 -96 50 -129s84 -52 149 -58c-2 -4 -7 -9 -11 -16c-21 -24 -53 -35 -93 -35c-8 0 -16 3 -24 10s-15 15 -23 24s-17 19 -25 29s-19 17 -31 24s-27 10 -41 10c0 -4 2 -9 7 -15s12 -14 20 -25s16 -22 21 -33
c13 -25 27 -44 41 -56s32 -17 55 -17c24 0 46 3 65 10c-11 -45 -17 -90 -17 -137v-3l1 -4c-84 22 -153 68 -207 138s-81 150 -81 240c0 53 10 103 30 151s47 90 81 125s76 62 123 83s97 31 149 31s102 -10 149 -31s89 -48 123 -83s61 -77 81 -125s31 -98 31 -151
c0 -90 -28 -170 -82 -240s-123 -116 -207 -138z" />
    <glyph glyph-name="RSS" 
d="M812 6c-20 0 -37 7 -51 21s-21 31 -21 51c0 75 -15 147 -44 215s-69 126 -118 175s-107 89 -175 118s-140 44 -215 44c-20 0 -37 7 -51 21s-21 31 -21 51s7 37 21 51s31 21 51 21c63 0 125 -9 185 -26s115 -39 166 -69s98 -66 141 -109s79 -90 109 -141s52 -106 69 -166
s26 -122 26 -185c0 -20 -7 -37 -21 -51s-31 -21 -51 -21zM188 486c55 0 109 -11 159 -32s94 -51 130 -87s66 -80 87 -130s32 -104 32 -159c0 -20 -7 -37 -21 -51s-31 -21 -51 -21s-37 7 -51 21s-21 31 -21 51c0 75 -25 139 -75 189s-114 75 -189 75c-20 0 -37 7 -51 21
s-21 31 -21 51s7 37 21 51s31 21 51 21zM212 198c26 0 49 -9 68 -28s28 -42 28 -68s-9 -48 -28 -67s-42 -29 -68 -29s-48 10 -67 29s-29 41 -29 67s10 49 29 68s41 28 67 28z" />
    <glyph glyph-name="Moner" 
d="M443 284l58 -57l57 57l108 110v-203h161c-67 -110 -189 -185 -327 -185s-260 75 -327 185h161v203zM500 774c212 0 383 -172 383 -384c0 -43 -8 -84 -20 -122h-114v322l-249 -249l-250 249v-322h-114c-12 38 -20 79 -20 122c0 212 172 384 384 384z" />
    <glyph glyph-name="Blogs" 
d="M759 774c8 0 15 -4 21 -9l95 -95c5 -6 9 -13 9 -21s-4 -15 -9 -21l-62 -57l-133 134l59 60c5 6 12 9 20 9zM760 517l-384 -384l-134 134l384 384zM325 77l-209 -71l69 210z" />
    <glyph glyph-name="FashShop" 
d="M452 774h96c4 0 8 -2 11 -5s5 -7 5 -11v-124c44 -12 82 -34 114 -66s54 -70 66 -114h124c4 0 8 -2 11 -5s5 -7 5 -11v-96c0 -4 -2 -8 -5 -11s-7 -5 -11 -5h-124c-12 -44 -34 -82 -66 -114s-70 -54 -114 -66v-124c0 -4 -2 -8 -5 -11s-7 -5 -11 -5h-96c-4 0 -8 2 -11 5
s-5 7 -5 11v124c-44 12 -82 34 -114 66s-54 70 -66 114h-124c-4 0 -8 2 -11 5s-5 7 -5 11v96c0 4 2 8 5 11s7 5 11 5h124c12 44 34 82 66 114s70 54 114 66v124c0 4 2 8 5 11s7 5 11 5zM564 577v-107c0 -4 -2 -8 -5 -11s-7 -5 -11 -5h-96c-4 0 -8 2 -11 5s-5 7 -5 11v107
c-29 -10 -54 -25 -76 -47s-37 -47 -47 -76h107c4 0 8 -2 11 -5s5 -7 5 -11v-96c0 -4 -2 -8 -5 -11s-7 -5 -11 -5h-107c10 -29 25 -54 47 -76s47 -37 76 -47v107c0 4 2 8 5 11s7 5 11 5h96c4 0 8 -2 11 -5s5 -7 5 -11v-107c29 10 54 25 76 47s37 47 47 76h-107
c-4 0 -8 2 -11 5s-5 7 -5 11v96c0 4 2 8 5 11s7 5 11 5h107c-10 29 -25 54 -47 76s-47 37 -76 47z" />
    <glyph glyph-name="GEBlog"
d="M820 390h-192v-336c0 -13 -7 -24 -19 -33s-27 -15 -45 -15h-128c-17 0 -32 6 -45 15s-19 20 -19 33v336h-192c-17 0 -32 5 -45 14s-18 21 -18 34v96c0 13 6 25 18 34s27 14 45 14h192v144c0 13 6 25 19 34s28 14 45 14h128c18 0 33 -5 45 -14s19 -21 19 -34v-144h192
c18 0 33 -5 45 -14s18 -21 18 -34v-96c0 -13 -6 -25 -18 -34s-27 -14 -45 -14z" />
    <glyph glyph-name="Lnst" 
d="M317 390c-10 10 -11 20 -5 27l174 351c4 4 9 6 14 6s10 -2 14 -6l174 -351c6 -7 5 -16 -5 -27h-366zM874 6h-365c-6 6 -9 11 -9 16c-1 -5 -4 -10 -9 -16h-365c-10 10 -12 20 -6 27l174 351c4 4 9 6 14 6s11 -2 15 -6l173 -351c2 -2 4 -5 4 -8c0 3 2 6 4 8l173 351
c4 4 10 6 15 6s10 -2 14 -6l174 -351c6 -7 4 -16 -6 -27z" />
    <glyph glyph-name="SaintI" 
d="M548 342l336 -336l-624 288l192 144l-336 336l624 -288z" />
    <glyph glyph-name="CodeI" 
d="M870 358l-148 -194c-9 -8 -20 -13 -33 -13s-23 4 -32 13s-14 19 -14 32s5 24 14 33l123 161l-123 162c-9 9 -14 20 -14 32s5 23 14 32s19 14 32 14s24 -5 33 -14l148 -193c9 -9 14 -21 14 -33s-5 -23 -14 -32zM500 54c0 -1 -1 -4 -2 -8s-2 -8 -2 -9l-3 -8l-4 -8l-5 -6
l-8 -5l-10 -2l-14 -1c-12 0 -23 6 -34 18c-9 10 -13 20 -13 29c0 3 0 5 1 7l94 665c8 32 33 48 72 48c11 0 18 -6 22 -18c2 -6 3 -13 3 -19s-1 -12 -3 -18zM343 164c-9 -9 -19 -13 -32 -13s-24 5 -33 13l-148 194c-9 9 -14 20 -14 32s5 24 14 33l148 193c9 9 20 14 33 14
s23 -5 32 -14s14 -20 14 -32s-5 -23 -14 -32l-123 -162l123 -161c9 -9 14 -20 14 -33s-5 -23 -14 -32z" />
    <glyph glyph-name="AudI" 
d="M413 773h174c5 0 9 -2 12 -5s5 -7 5 -12v-105c0 -5 -2 -9 -5 -12s-7 -5 -12 -5h-174c-5 0 -9 2 -12 5s-6 7 -6 12v105c0 5 3 9 6 12s7 5 12 5zM413 564h174c5 0 9 -2 12 -5s5 -7 5 -12v-105c0 -5 -2 -9 -5 -12s-7 -5 -12 -5h-174c-5 0 -9 2 -12 5s-6 7 -6 12v105
c0 5 3 9 6 12s7 5 12 5zM692 564h174c5 0 9 -2 12 -5s5 -7 5 -12v-105c0 -5 -2 -9 -5 -12s-7 -5 -12 -5h-174c-5 0 -9 2 -12 5s-6 7 -6 12v105c0 5 3 9 6 12s7 5 12 5zM134 355h174c5 0 9 -2 12 -5s6 -7 6 -12v-105c0 -5 -3 -9 -6 -12s-7 -5 -12 -5h-174c-5 0 -9 2 -12 5
s-5 7 -5 12v105c0 5 2 9 5 12s7 5 12 5zM413 355h174c5 0 9 -2 12 -5s5 -7 5 -12v-105c0 -5 -2 -9 -5 -12s-7 -5 -12 -5h-174c-5 0 -9 2 -12 5s-6 7 -6 12v105c0 5 3 9 6 12s7 5 12 5zM692 355h174c5 0 9 -2 12 -5s5 -7 5 -12v-105c0 -5 -2 -9 -5 -12s-7 -5 -12 -5h-174
c-5 0 -9 2 -12 5s-6 7 -6 12v105c0 5 3 9 6 12s7 5 12 5zM134 145h174c5 0 9 -1 12 -4s6 -7 6 -12v-105c0 -5 -3 -9 -6 -12s-7 -6 -12 -6h-174c-5 0 -9 3 -12 6s-5 7 -5 12v105c0 5 2 9 5 12s7 4 12 4zM413 145h174c5 0 9 -1 12 -4s5 -7 5 -12v-105c0 -5 -2 -9 -5 -12
s-7 -6 -12 -6h-174c-5 0 -9 3 -12 6s-6 7 -6 12v105c0 5 3 9 6 12s7 4 12 4zM692 145h174c5 0 9 -1 12 -4s5 -7 5 -12v-105c0 -5 -2 -9 -5 -12s-7 -6 -12 -6h-174c-5 0 -9 3 -12 6s-6 7 -6 12v105c0 5 3 9 6 12s7 4 12 4z" />
    <glyph glyph-name="PhoI" 
d="M145 774h710c8 0 14 -4 20 -10s9 -13 9 -21v-706c0 -8 -3 -15 -9 -21s-12 -9 -20 -9h-710c-8 0 -14 3 -20 9s-8 13 -8 21v706c0 8 2 15 8 21s12 10 20 10zM181 704v-514l157 127l191 -92l-48 109l188 222l151 -201v349h-639zM335 623c24 0 44 -9 61 -27s24 -40 24 -66
s-7 -48 -24 -66s-37 -28 -61 -28s-44 10 -61 28s-25 40 -25 66s8 48 25 66s37 27 61 27z" />
    <glyph glyph-name="Tech" 
d="M475 63l286 322c37 41 58 85 61 131v14c0 39 -11 74 -32 106c-24 35 -55 56 -94 64c-9 2 -19 3 -29 3c-14 0 -27 -2 -40 -7s-25 -9 -35 -15s-20 -15 -33 -26s-23 -21 -30 -29s-16 -18 -29 -32c-153 -171 -233 -260 -239 -267c-12 -12 -21 -21 -27 -28s-14 -16 -23 -28
s-15 -23 -19 -32s-7 -20 -10 -33c-1 -7 -3 -14 -3 -21c0 -6 1 -11 2 -17c4 -28 15 -50 33 -65s38 -22 60 -22c30 0 55 11 76 34l335 375c10 11 15 23 15 35c0 5 -1 11 -3 16c-3 7 -7 13 -13 18s-13 7 -20 7c-11 0 -21 -6 -31 -16c-5 -5 -12 -14 -23 -26l-208 -231
c-6 -7 -14 -11 -22 -11s-15 4 -21 10s-9 14 -9 23s3 18 9 24c133 152 206 236 220 251c14 16 28 27 41 35s29 11 48 11c6 0 12 -1 18 -1c18 -4 33 -11 45 -24s22 -28 27 -47c3 -12 5 -23 5 -35c0 -10 -2 -21 -4 -31c-5 -23 -15 -41 -29 -57c-5 -5 -11 -12 -19 -22
s-25 -29 -49 -56s-48 -53 -70 -78s-47 -54 -75 -85s-53 -58 -75 -81s-42 -44 -59 -61s-29 -28 -35 -31c-23 -12 -47 -18 -73 -18c-28 0 -55 6 -79 21s-42 35 -56 61c-15 28 -24 58 -24 91c0 9 1 19 2 28c5 43 22 80 50 111l311 349c29 33 52 55 68 66c37 25 77 37 120 37
c33 0 64 -7 93 -22c32 -16 58 -39 79 -70s35 -66 41 -106c3 -16 3 -32 3 -48c0 -26 -3 -51 -10 -77c-11 -41 -30 -77 -57 -107l-294 -326c-6 -7 -13 -10 -22 -10s-16 2 -23 9s-9 14 -10 23s1 17 8 24z" />
    <glyph glyph-name="BookI" 
d="M256 774l575 -1c35 0 53 -15 53 -47v-576c0 -11 -5 -19 -13 -27l-45 -41c-4 -3 -7 -5 -9 -4s-3 4 -3 8v608c0 4 -2 8 -5 11s-8 5 -13 5h-488c-12 0 -22 -4 -30 -12l-44 -41c-4 -3 -5 -6 -4 -8s4 -4 9 -4h488c5 0 9 -1 12 -4s6 -7 6 -11v-608c0 -4 -3 -8 -6 -11
s-7 -5 -12 -5h-593c-5 0 -9 2 -12 5s-5 7 -5 11v624c0 11 4 19 12 27l97 89c8 8 18 12 30 12z" />
    <glyph glyph-name="VidI" 
d="M812 150h-96c-6 0 -12 -2 -17 -7s-7 -11 -7 -17s2 -12 7 -17s11 -7 17 -7h96c6 0 11 2 16 7s8 11 8 17s-3 12 -8 17s-10 7 -16 7zM812 246h-96c-6 0 -12 -2 -17 -7s-7 -11 -7 -17s2 -12 7 -17s11 -7 17 -7h96c6 0 11 2 16 7s8 11 8 17s-3 12 -8 17s-10 7 -16 7zM812 342
h-96c-6 0 -12 -2 -17 -7s-7 -11 -7 -17s2 -12 7 -17s11 -7 17 -7h96c6 0 11 2 16 7s8 11 8 17s-3 12 -8 17s-10 7 -16 7zM812 438h-96c-6 0 -12 -2 -17 -7s-7 -11 -7 -17s2 -12 7 -17s11 -7 17 -7h96c6 0 11 2 16 7s8 11 8 17s-3 12 -8 17s-10 7 -16 7zM644 308
c0 82 -16 126 -48 130h-384c-9 -1 -18 -6 -24 -13s-11 -14 -14 -22s-5 -18 -7 -31s-3 -22 -3 -29v-27v-8v-76c0 -12 1 -24 2 -36s3 -24 6 -39s8 -27 15 -37s15 -17 25 -18h384c7 1 14 4 20 9s11 11 14 20s6 18 8 25s3 17 4 28s1 20 1 25s1 14 1 23v76zM788 6h-576
c-26 0 -48 10 -67 29s-29 41 -29 67v336c0 26 10 49 29 68s41 28 67 28h261l-147 147c-6 -2 -12 -3 -18 -3c-13 0 -24 5 -33 14s-15 21 -15 34s6 25 15 34s21 14 34 14s24 -5 33 -14s14 -21 14 -34c0 -6 -2 -12 -4 -18l148 -147l148 147c-2 6 -4 12 -4 18c0 13 5 25 14 34
s21 14 34 14s25 -5 34 -14s14 -21 14 -34s-5 -25 -14 -34s-21 -14 -34 -14c-6 0 -12 1 -18 3l-147 -147h261c26 0 48 -9 67 -28s29 -42 29 -68v-336c0 -26 -10 -48 -29 -67s-41 -29 -67 -29z" />
    <glyph glyph-name="ArcI" 
d="M692 6c-48 0 -91 32 -127 96h-130c-36 -64 -79 -96 -127 -96c-53 0 -98 38 -135 113s-57 164 -57 270s20 197 57 272s82 113 135 113h384c53 0 98 -38 135 -113s57 -166 57 -272s-20 -195 -57 -270s-82 -113 -135 -113zM404 486h-48v96c0 27 -5 50 -14 68s-21 28 -34 28
s-25 -10 -34 -28s-14 -41 -14 -68v-96h-48c-13 0 -25 -10 -34 -29s-14 -42 -14 -68s5 -47 14 -66s21 -29 34 -29h48v-96c0 -27 5 -50 14 -68s21 -28 34 -28s25 10 34 28s14 41 14 68v96h48c13 0 25 10 34 29s14 42 14 68s-5 49 -14 67s-21 28 -34 28zM643 389
c-13 0 -24 -8 -33 -27s-14 -43 -14 -69s5 -49 14 -67s20 -28 33 -28s26 10 35 28s14 41 14 67s-5 50 -14 69s-22 27 -35 27zM739 582c-13 0 -24 -10 -33 -29s-14 -42 -14 -68s5 -49 14 -67s20 -29 33 -29s25 11 34 29s15 41 15 67s-6 49 -15 68s-21 29 -34 29z" />
    <glyph glyph-name="MusI" 
d="M369 663l453 106c9 3 18 4 25 4s14 -1 20 -4c11 -6 16 -17 16 -32v-536c0 -24 -10 -45 -29 -62s-45 -31 -78 -41c-20 -6 -40 -9 -59 -9c-15 0 -30 2 -44 6c-32 9 -53 25 -61 48c-2 7 -4 14 -4 21c0 17 8 34 22 51c20 25 49 42 86 53c20 6 40 10 59 10c13 0 26 -2 38 -5
v337l-422 -100v-391c0 -18 -9 -38 -30 -59s-47 -35 -77 -44c-21 -6 -41 -9 -60 -9c-15 0 -29 1 -43 5c-32 9 -53 25 -61 49c-2 7 -3 14 -3 21c0 17 7 34 21 51c20 24 49 42 86 53c20 6 39 10 58 10c13 0 26 -2 39 -5v412c0 16 3 29 10 38s20 16 38 22z" />
    <glyph glyph-name="FimlI" 
d="M132 774h736c4 0 8 -3 11 -6s5 -7 5 -12v-732c0 -5 -2 -9 -5 -12s-7 -6 -11 -6h-736c-4 0 -8 3 -11 6s-5 7 -5 12v732c0 5 2 9 5 12s7 6 11 6zM180 704v-70h64v70h-64zM676 704h-352c-4 0 -8 -2 -11 -5s-5 -8 -5 -13v-244c0 -5 2 -9 5 -12s7 -5 11 -5h352c4 0 8 2 11 5
s5 7 5 12v244c0 5 -2 10 -5 13s-7 5 -11 5zM756 704v-70h64v70h-64zM180 564v-69h64v69h-64zM756 564v-69h64v69h-64zM180 425v-70h64v70h-64zM756 425v-70h64v70h-64zM676 355h-352c-4 0 -8 -2 -11 -5s-5 -7 -5 -12v-244c0 -5 2 -10 5 -13s7 -5 11 -5h352c4 0 8 2 11 5
s5 8 5 13v244c0 5 -2 9 -5 12s-7 5 -11 5zM180 285v-69h64v69h-64zM756 285v-69h64v69h-64zM180 146v-70h64v70h-64zM756 146v-70h64v70h-64z" />
    <glyph glyph-name="FAQ" 
d="M500 774c52 0 102 -11 149 -31s89 -47 123 -81s61 -76 81 -123s31 -97 31 -149s-11 -102 -31 -149s-47 -89 -81 -123s-76 -61 -123 -81s-97 -31 -149 -31s-102 11 -149 31s-89 47 -123 81s-61 76 -81 123s-31 97 -31 149s11 102 31 149s47 89 81 123s76 61 123 81
s97 31 149 31zM492 617c-13 0 -26 -2 -39 -4s-27 -7 -42 -14s-28 -15 -39 -25s-20 -24 -27 -42s-12 -38 -12 -60c0 -11 5 -16 14 -16h87c13 -2 21 0 23 7c3 9 8 15 14 19s16 5 30 5c9 0 16 -2 21 -7s8 -11 8 -19c0 -10 -2 -17 -5 -22s-9 -9 -17 -12l-9 -3s-10 -3 -13 -5
s-7 -4 -13 -7s-11 -7 -15 -11s-8 -10 -12 -16s-7 -15 -10 -24s-5 -19 -6 -30c0 -4 1 -7 4 -11s7 -6 13 -6h115c3 0 8 2 15 6s14 9 23 18s17 20 25 32s15 29 20 49s8 43 8 67c0 21 -3 39 -11 55s-18 29 -29 38s-24 17 -39 23s-30 10 -43 12s-26 3 -39 3zM550 257h-100
c-4 0 -8 -2 -11 -5s-5 -8 -5 -12v-99c0 -4 2 -9 5 -12s7 -5 11 -5h100c4 0 8 2 11 5s5 8 5 12v99c0 4 -2 9 -5 12s-7 5 -11 5z" />
  </font>
</defs>
</svg>
