<?xml version="1.0" standalone="no"?>
<!DOCTYPE svg PUBLIC "-//W3C//DTD SVG 1.1//EN" "http://www.w3.org/Graphics/SVG/1.1/DTD/svg11.dtd" >
<svg xmlns="http://www.w3.org/2000/svg" xmlns:xlink="http://www.w3.org/1999/xlink" version="1.1" viewBox="-10 0 1210 1200">
   <path fill="currentColor"
d="M600 -217q117 0 224 45.5t184.5 123t123 184.5t45.5 224t-45.5 224t-123 184.5t-184.5 123t-224 45.5t-224 -45.5t-184.5 -123t-123 -184.5t-45.5 -224t45.5 -224t123 -184.5t184.5 -123t224 -45.5zM675 -40h-150q-10 0 -17.5 7.5t-7.5 17.5v150q0 10 7.5 17.5t17.5 7.5
h150q10 0 17.5 -7.5t7.5 -17.5v-150q0 -10 -7.5 -17.5t-17.5 -7.5zM675 260h-250q-10 0 -17.5 7.5t-7.5 17.5v50q0 10 7.5 17.5t17.5 7.5h75v200h-75q-10 0 -17.5 7.5t-7.5 17.5v50q0 10 7.5 17.5t17.5 7.5h350q10 0 17.5 -7.5t7.5 -17.5v-50q0 -10 -7.5 -17.5t-17.5 -7.5
h-75v-275q0 -10 -7.5 -17.5t-17.5 -7.5z" />
</svg>
