<?xml version="1.0" standalone="no"?>
<!DOCTYPE svg PUBLIC "-//W3C//DTD SVG 1.1//EN" "http://www.w3.org/Graphics/SVG/1.1/DTD/svg11.dtd" >
<svg xmlns="http://www.w3.org/2000/svg" xmlns:xlink="http://www.w3.org/1999/xlink" version="1.1" viewBox="-10 0 1220 1200">
   <path fill="currentColor"
d="M300 -240h825q75 0 75 75v900q0 25 -18 43l-64 64q-8 8 -13 5.5t-5 -12.5v-950q0 -10 -7.5 -17.5t-17.5 -7.5h-700q-25 0 -43 18l-64 64q-8 8 -5.5 13t12.5 5h700q10 0 17.5 7.5t7.5 17.5v950q0 10 -7.5 17.5t-17.5 7.5h-850q-10 0 -17.5 -7.5t-7.5 -17.5v-975
q0 -25 18 -43l139 -139q18 -18 43 -18z" />
</svg>
