<?xml version="1.0" standalone="no"?>
<!DOCTYPE svg PUBLIC "-//W3C//DTD SVG 1.1//EN" "http://www.w3.org/Graphics/SVG/1.1/DTD/svg11.dtd" >
<svg xmlns="http://www.w3.org/2000/svg" xmlns:xlink="http://www.w3.org/1999/xlink" version="1.1" viewBox="-10 0 1210 1200">
   <path fill="currentColor"
d="M350 -140h361q-164 146 -216 200h-195q-41 0 -70.5 29.5t-29.5 70.5v500q0 41 29.5 70.5t70.5 29.5h500q41 0 70.5 -29.5t29.5 -70.5l200 -153v103q0 165 -92.5 257.5t-257.5 92.5h-400q-165 0 -257.5 -92.5t-92.5 -257.5v-400q0 -165 92.5 -257.5t257.5 -92.5zM824 -113
l339 301q8 7 8 17.5t-8 17.5l-340 306q-7 6 -12.5 4t-6.5 -11v-203q-26 -1 -54.5 0t-78.5 7.5t-92 17.5t-86 35t-70 57q10 -59 33 -108t51.5 -81.5t65 -58.5t68.5 -40.5t67 -24.5t56 -13.5t40 -4.5v-210q1 -10 6.5 -12.5t13.5 4.5z" />
</svg>
