<?xml version="1.0" standalone="no"?>
<!DOCTYPE svg PUBLIC "-//W3C//DTD SVG 1.1//EN" "http://www.w3.org/Graphics/SVG/1.1/DTD/svg11.dtd" >
<svg xmlns="http://www.w3.org/2000/svg" xmlns:xlink="http://www.w3.org/1999/xlink" version="1.1" viewBox="-10 0 1220 1200">
   <path fill="currentColor"
d="M525 -240h150q10 0 17.5 7.5t7.5 17.5v194q103 27 178.5 102.5t102.5 178.5h194q10 0 17.5 7.5t7.5 17.5v150q0 10 -7.5 17.5t-17.5 7.5h-194q-27 103 -102.5 178.5t-178.5 102.5v194q0 10 -7.5 17.5t-17.5 7.5h-150q-10 0 -17.5 -7.5t-7.5 -17.5v-194
q-103 -27 -178.5 -102.5t-102.5 -178.5h-194q-10 0 -17.5 -7.5t-7.5 -17.5v-150q0 -10 7.5 -17.5t17.5 -7.5h194q27 -103 102.5 -178.5t178.5 -102.5v-194q0 -10 7.5 -17.5t17.5 -7.5zM700 67v168q0 10 -7.5 17.5t-17.5 7.5h-150q-10 0 -17.5 -7.5t-7.5 -17.5v-168
q-68 23 -119 74t-74 119h168q10 0 17.5 7.5t7.5 17.5v150q0 10 -7.5 17.5t-17.5 7.5h-168q23 68 74 119t119 74v-168q0 -10 7.5 -17.5t17.5 -7.5h150q10 0 17.5 7.5t7.5 17.5v168q68 -23 119 -74t74 -119h-168q-10 0 -17.5 -7.5t-7.5 -17.5v-150q0 -10 7.5 -17.5t17.5 -7.5
h168q-23 -68 -74 -119t-119 -74z" />
</svg>
