<?xml version="1.0" standalone="no"?>
<!DOCTYPE svg PUBLIC "-//W3C//DTD SVG 1.1//EN" "http://www.w3.org/Graphics/SVG/1.1/DTD/svg11.dtd" >
<svg xmlns="http://www.w3.org/2000/svg" xmlns:xlink="http://www.w3.org/1999/xlink" version="1.1" viewBox="-10 0 1044 1024">
   <path fill="currentColor"
d="M960 243l-242 40q50 68 50 152q0 106 -75 181t-181 75q-85 0 -152 -49.5t-92 -128.5l-82 145q-15 26 -45 32q-6 1 -11 1h-1h-1h-64q-26 0 -45 -19t-19 -45.5t19 -45t45 -18.5h26l111 -194l-9 2q-73 4 -132.5 -55t-59.5 -137q0 -79 54 -137.5t126 -54.5h12v-32
q0 -13 9.5 -22.5t22.5 -9.5t22.5 9.5t9.5 22.5v32h704q27 0 45.5 37.5t18.5 90.5q0 51 -18 85t-46 43zM512 307q-53 0 -90.5 37.5t-37.5 90.5t37.5 90.5t90.5 37.5t90.5 -37.5t37.5 -90.5t-37.5 -90.5t-90.5 -37.5zM511.5 499q-26.5 0 -45 -19t-18.5 -45.5t18.5 -45
t45 -18.5t45.5 18.5t19 45t-19 45.5t-45.5 19z" />
</svg>
