<?xml version="1.0" standalone="no"?>
<!DOCTYPE svg PUBLIC "-//W3C//DTD SVG 1.1//EN" "http://www.w3.org/Graphics/SVG/1.1/DTD/svg11.dtd" >
<svg xmlns="http://www.w3.org/2000/svg" xmlns:xlink="http://www.w3.org/1999/xlink" version="1.1" viewBox="-10 0 1034 1024">
   <path fill="currentColor"
d="M957 549q-26 45 -86.5 64.5t-143.5 11.5q-36 91 -88.5 142.5t-112 51.5t-112 -52t-88.5 -142q-83 8 -143.5 -11.5t-86.5 -64.5q-27 -49 -12.5 -111t67.5 -131q-53 -69 -67.5 -131t12.5 -111q26 -45 87 -64.5t143 -11.5q36 -91 88.5 -142.5t112 -51.5t112 51.5t88.5 142.5
q83 -8 143.5 11.5t86.5 64.5q28 48 13 110.5t-68 131.5q53 69 68 131t-13 111zM899 513q36 -60 -37 -159q-40 43 -88 81q-8 66 -26 127q117 7 151 -49zM351 128q26 -17 51 -31q5 -2 38 -19q-39 -12 -73 -18q-10 34 -16 68zM435 154q-50 28 -96 61q-4 45 -4 92q0 41 4 93
q47 33 96 60q43 24 91 44q52 -22 93 -44q50 -28 96 -61q4 -46 4 -92q0 -40 -5 -93q-47 -33 -95 -60q-44 -24 -92 -44q-52 22 -92 44zM272 268q-20 17 -41 39q20 21 41 39q-1 -29 -1 -39q0 -16 1 -39zM703 486q-28 17 -52 31l-38 19q38 12 73 18q10 -34 17 -68zM782 346
q20 -18 40 -39q-19 -20 -41 -39q2 33 2 39q0 10 -1 39zM527 755q40 0 76 -36.5t62 -101.5q-66 -13 -139 -41q-72 28 -138 41q27 65 63 101.5t76 36.5zM439 536q-23 -11 -37 -19q-23 -13 -51 -31q7 40 16 68q31 -5 72 -18zM154 513q35 56 151 49q-17 -59 -26 -127
q-48 -38 -88 -80q-72 99 -37 158zM154 101q-35 60 37 158q40 -42 88 -80q8 -66 26 -127q-116 -7 -151 49zM527 -141q-40 0 -76 36.5t-63 101.5q67 13 139 41q73 -28 138 -41q-27 -65 -62.5 -101.5t-75.5 -36.5zM615 78q21 11 36 19q22 13 51 31q-7 -39 -15 -68q-30 5 -72 18
zM899 101q-34 -56 -151 -49q17 59 26 127q48 38 88 80q72 -98 37 -158z" />
</svg>
