<?xml version="1.0" standalone="no"?>
<!DOCTYPE svg PUBLIC "-//W3C//DTD SVG 1.1//EN" "http://www.w3.org/Graphics/SVG/1.1/DTD/svg11.dtd" >
<svg xmlns="http://www.w3.org/2000/svg" xmlns:xlink="http://www.w3.org/1999/xlink" version="1.1" viewBox="-10 0 1044 1024">
   <path fill="currentColor"
d="M512 819q-145 -36 -262 -135.5t-183.5 -242.5t-66.5 -299v-283q290 -64 512 -64t512 64v283q0 156 -66.5 299t-183.5 242.5t-262 135.5zM320 -13q-53 0 -90.5 19t-37.5 45.5t37.5 45t90.5 18.5t90.5 -18.5t37.5 -45t-37.5 -45.5t-90.5 -19zM256 448q0 34 12.5 44.5
t37.5 2.5t54 -21t71.5 -26t80.5 -13t80.5 13t71.5 26t54 21t37.5 -2.5t12.5 -44.5q0 -35 -51.5 -69.5t-110.5 -53t-94 -18.5t-94 18.5t-110.5 53t-51.5 69.5zM704 -13q-53 0 -90.5 19t-37.5 45.5t37.5 45t90.5 18.5t90.5 -18.5t37.5 -45t-37.5 -45.5t-90.5 -19z" />
</svg>
