<?xml version="1.0" standalone="no"?>
<!DOCTYPE svg PUBLIC "-//W3C//DTD SVG 1.1//EN" "http://www.w3.org/Graphics/SVG/1.1/DTD/svg11.dtd" >
<svg xmlns="http://www.w3.org/2000/svg" xmlns:xlink="http://www.w3.org/1999/xlink" version="1.1" viewBox="-10 0 1044 1024">
   <path fill="currentColor"
d="M928 179q-18 0 -36 -7q-8 31 -33.5 51t-58.5 20q-28 0 -53 -17q-36 13 -84 16q-36 36 -57 72q72 10 117 34.5t45 54.5q0 32 -51 57.5t-131 34.5q27 133 130 207q138 15 223 46.5t85 70.5h-1024q0 -39 85 -70.5t223 -46.5q103 -75 130 -207q-80 -9 -131 -34.5t-51 -57.5
q0 -30 45 -54.5t117 -34.5q-21 -36 -57 -72q-1 0 -4 0.5t-5 0.5q-37 0 -73 -18q-26 18 -55 18q-33 0 -58.5 -20t-33.5 -51q-18 7 -36 7q-40 0 -68 -28t-28 -68q0 -31 18 -55.5t47 -34.5q0 -1 -0.5 -3t-0.5 -3q0 -53 37.5 -90.5t90.5 -37.5q8 0 17 1q17 -29 46.5 -47
t64.5 -18q57 0 96 44q39 -44 96 -44q50 0 87 35q29 -35 73 -35q31 0 55.5 18t34.5 47q1 0 3 -0.5t3 -0.5q58 0 102 36.5t55 91.5h1h2q40 0 68 28t28 68t-28 68t-68 28zM444 373q-55 4 -89.5 12t-34.5 18t35 18.5t91 11.5q2 -29 2 -30q0 -12 -4 -30zM578 433q56 -3 91 -11.5
t35 -18.5t-34.5 -18t-89.5 -12q-4 18 -4 30q0 1 2 30z" />
</svg>
