<?xml version="1.0" standalone="no"?>
<!DOCTYPE svg PUBLIC "-//W3C//DTD SVG 1.1//EN" "http://www.w3.org/Graphics/SVG/1.1/DTD/svg11.dtd" >
<svg xmlns="http://www.w3.org/2000/svg" xmlns:xlink="http://www.w3.org/1999/xlink" version="1.1" viewBox="-10 0 1045 1024">
   <path fill="currentColor"
d="M960 51q-7 0 -19 -2l-47 47q31 19 66 19q1 0 3 -0.5l2 -0.5l59 545q1 13 -7 22.5t-21 9.5h-189q-13 0 -23 -9.5t-11 -22.5l-24 -224h-141q-70 0 -115 -50t-45 -142h-352q-13 0 -22.5 -9.5t-9.5 -22.5v-32h-32q-13 0 -22.5 -9.5t-9.5 -22.5v-128q0 -13 9.5 -22.5
t22.5 -9.5h32v-32q0 -13 9.5 -22.5t22.5 -9.5t22.5 9.5t9.5 22.5v32h604h4h96q0 35 19 66l56 -57q14 -13 32 -7q13 -2 21 -2q27 0 45.5 9.5t18.5 22.5t-18.5 22.5t-45.5 9.5zM728 243h-24q0 38 -17 71.5t-47 55.5v-127h-122q-6 16 -6 32q0 40 28 68t68 28h134z" />
</svg>
