<?xml version="1.0" standalone="no"?>
<!DOCTYPE svg PUBLIC "-//W3C//DTD SVG 1.1//EN" "http://www.w3.org/Graphics/SVG/1.1/DTD/svg11.dtd" >
<svg xmlns="http://www.w3.org/2000/svg" xmlns:xlink="http://www.w3.org/1999/xlink" version="1.1" viewBox="-10 0 1044 1024">
   <path fill="currentColor"
d="M960 51v-192h-192v-64h256v256h-64zM768 -77h-64v-64h64v64zM704 -13h-64v-64h64v64zM640 -13v64h-64v-64h64zM512 115v-64h64v64h-64zM448 179v-64h64v64h-64zM384 243v-64h64v64h-64zM320 307v-64h64v64h-64zM384 435h-64v-64h64v64zM448 499h-64v-64h64v64zM576 435
v64h-64v-64h64zM640 371v64h-64v-64h64zM704 307v64h-64v-64h64zM768 243v64h-64v-64h64zM832 179v64h-64v-64h64zM512 563h-64v-64h64v64zM576 691h-192v-64h64h64v-64h64v128zM256 371v-64h64v64h-64zM192 371v64h-64v-192h128v64h-64v64zM192 499v64h-64v-64h64zM192 691
h64v64h-64v64h-128v-64h-64v-128h64v-64h64v64h-64v64h64v64h64v-64zM256 627h64v64h-64v-64zM320 563h64v64h-64v-64zM256 499h64v64h-64v-64zM192 435h64v64h-64v-64zM768 51v-64h64v64h-64zM704 115v-64h64v64h-64zM640 179v-64h64v64h-64zM576 243v-64h64v64h-64z
M512 307v-64h64v64h-64zM448 371v-64h64v64h-64zM896 -77v64h-64v-64h64zM896 179h-64v-64h64v64zM960 115h-64v-64h64v64z" />
</svg>
