<?xml version="1.0" standalone="no"?>
<!DOCTYPE svg PUBLIC "-//W3C//DTD SVG 1.1//EN" "http://www.w3.org/Graphics/SVG/1.1/DTD/svg11.dtd" >
<svg xmlns="http://www.w3.org/2000/svg" xmlns:xlink="http://www.w3.org/1999/xlink" version="1.1" viewBox="-10 0 1044 1024">
   <path fill="currentColor"
d="M992 499h-96v-64h96q13 0 22.5 9.5t9.5 22.5t-9.5 22.5t-22.5 9.5zM992 371h-96v-64h96q13 0 22.5 9.5t9.5 22.5t-9.5 22.5t-22.5 9.5zM992 243h-96v-64h96q13 0 22.5 9.5t9.5 22.5t-9.5 22.5t-22.5 9.5zM992 115h-96v-64h96q13 0 22.5 9.5t9.5 22.5t-9.5 22.5t-22.5 9.5
zM800 819q-13 0 -22.5 -9.5t-9.5 -22.5v-96h64v96q0 13 -9.5 22.5t-22.5 9.5zM768 627h-448q-26 0 -45 -19t-19 -45v-448q0 -26 19 -45t45 -19h448q27 0 45.5 18.5t18.5 45.5v448q0 27 -18.5 45.5t-45.5 18.5zM768 -109q0 -13 9.5 -22.5t22.5 -9.5t22.5 9.5t9.5 22.5v96h-64
v-96zM640 -109q0 -13 9.5 -22.5t22.5 -9.5t22.5 9.5t9.5 22.5v96h-64v-96zM512 -109q0 -13 9.5 -22.5t22.5 -9.5t22.5 9.5t9.5 22.5v96h-64v-96zM384 -109q0 -13 9.5 -22.5t22.5 -9.5t22.5 9.5t9.5 22.5v96h-64v-96zM256 -109q0 -13 9.5 -22.5t22.5 -9.5t22.5 9.5t9.5 22.5
v96h-64v-96zM64 595q0 -13 9.5 -22.5t22.5 -9.5h96v64h-96q-13 0 -22.5 -9.5t-9.5 -22.5zM64 467q0 -13 9.5 -22.5t22.5 -9.5h96v64h-96q-13 0 -22.5 -9.5t-9.5 -22.5zM64 339q0 -13 9.5 -22.5t22.5 -9.5h96v64h-96q-13 0 -22.5 -9.5t-9.5 -22.5zM64 211q0 -13 9.5 -22.5
t22.5 -9.5h96v64h-96q-13 0 -22.5 -9.5t-9.5 -22.5zM64 83q0 -13 9.5 -22.5t22.5 -9.5h96v64h-96q-13 0 -22.5 -9.5t-9.5 -22.5zM320 787q0 13 -9.5 22.5t-22.5 9.5t-22.5 -9.5t-9.5 -22.5v-96h64v96zM448 787q0 13 -9.5 22.5t-22.5 9.5t-22.5 -9.5t-9.5 -22.5v-96h64v96z
M576 787q0 13 -9.5 22.5t-22.5 9.5t-22.5 -9.5t-9.5 -22.5v-96h64v96zM704 787q0 13 -9.5 22.5t-22.5 9.5t-22.5 -9.5t-9.5 -22.5v-96h64v96zM1024 595q0 13 -9.5 22.5t-22.5 9.5h-96v-64h96q13 0 22.5 9.5t9.5 22.5z" />
</svg>
