<?xml version="1.0" standalone="no"?>
<!DOCTYPE svg PUBLIC "-//W3C//DTD SVG 1.1//EN" "http://www.w3.org/Graphics/SVG/1.1/DTD/svg11.dtd" >
<svg xmlns="http://www.w3.org/2000/svg" xmlns:xlink="http://www.w3.org/1999/xlink" version="1.1" viewBox="-10 0 1044 1024">
   <path fill="currentColor"
d="M960 179v64h-64v64h-64v-64h-64v-64h-64v-64h-64v-64h-64v-64h-64v-64h64v-64h64v-64h256v64h64v64h64v256h-64zM832 -141h-128v64h128v-64zM896 115h-64v64h64v-64zM512 115h-64v-64h64v64zM448 307h-64v-64v-128h64v64v128zM448 435h-64v-64h64v64zM448 307h64v64h-64
v-64zM640 371h64v64h-128h-64v-64h128zM640 243h64v64h-64v-64zM576 179h64v64h-64v-64zM512 115h64v64h-64v-64zM768 307v64h-64v-64h64zM960 307v64h-64v-64h64zM896 435h-128v-64h128v64zM512 499h-64v-64h64v64zM384 563v-64h64v64h-64zM320 627v-64h64v64h-64zM320 371
v-64h64v64h-64zM256 435v-64h64v64h-64zM192 499v-64h64v64h-64zM384 51v-128h64v128h-64zM448 -141h64v64h-64v-64zM256 627h64v64h-64v-64zM256 691v64h-64v64h-128v-64h128v-64h64zM128 499h64v64h-64v-64zM64 755h-64v-128h64v-64h64v64h-64v128z" />
</svg>
