<?xml version="1.0" standalone="no"?>
<!DOCTYPE svg PUBLIC "-//W3C//DTD SVG 1.1//EN" "http://www.w3.org/Graphics/SVG/1.1/DTD/svg11.dtd" >
<svg xmlns="http://www.w3.org/2000/svg" xmlns:xlink="http://www.w3.org/1999/xlink" version="1.1" viewBox="-10 0 1044 1024">
   <path fill="currentColor"
d="M960 755v64h-64v-64h-64v-64h64v-288h-64v-160h-64v-64h64v64h64v-64h64v192h64v384h-64zM704 115h64v64h-64v-64zM640 115v-64h64v64h-64zM576 -13h-192v-64h-256v64h-64v-64h-64v-64h64v-64h384v64h192v64h-64v64h64v64h-64v-64zM192 51h-64v-64h64v64zM256 115h-64
v-64h64v64zM320 179h-64v-64h64v64zM384 243h-64v-64h64v64zM448 307h-64v-64h64v64zM512 371h-64v-64h64v64zM576 435h-64v-64h64v64zM640 499h-64v-64h64v64zM704 563h-64v-64h64v64zM768 627h-64v-64h64v64zM832 691h-64v-64h64v64zM704 -77v64h-64v-64h64zM704 -13h64
v64h-64v-64zM832 51v64h-64v-64h64zM896 115v64h-64v-64h64z" />
</svg>
