<?xml version="1.0" standalone="no"?>
<!DOCTYPE svg PUBLIC "-//W3C//DTD SVG 1.1//EN" "http://www.w3.org/Graphics/SVG/1.1/DTD/svg11.dtd" >
<svg xmlns="http://www.w3.org/2000/svg" xmlns:xlink="http://www.w3.org/1999/xlink" version="1.1" viewBox="-10 0 1034 1024">
   <path fill="currentColor"
d="M896 371v-384h-192v-64h256v448h-64zM832 51v320h-64v192h-64v64h-128v64h-128v-64h-128v-64h-64v-192h-64v-320h128v-65h384v65h128zM128 371h-64v-448h256v64h-192v384zM192 563h-64v-192h64v192zM896 371v192h-64v-192h64zM832 627h-64v-64h64v64zM768 691h-64v-64h64
v64zM704 755h-128v-64h128v64zM320 755v-64h128v64h-128zM256 691v-64h64v64h-64zM256 627h-64v-64h64v64zM576 -141h128v64h-128v-64zM448 -77h-128v-64h128v64zM448 -205h128v64h-128v-64zM576 819h-128v-64h128v64z" />
</svg>
