<?xml version="1.0" standalone="no"?>
<!DOCTYPE svg PUBLIC "-//W3C//DTD SVG 1.1//EN" "http://www.w3.org/Graphics/SVG/1.1/DTD/svg11.dtd" >
<svg xmlns="http://www.w3.org/2000/svg" xmlns:xlink="http://www.w3.org/1999/xlink" version="1.1" viewBox="-10 0 1044 1024">
   <path fill="currentColor"
d="M960 627h-128v6q28 10 46 34.5t18 55.5q0 40 -28 68t-68 28t-68 -28t-28 -68q0 -31 18 -55.5t46 -34.5v-6h-320v6q28 10 46 34.5t18 55.5q0 40 -28 68t-68 28t-68 -28t-28 -68q0 -31 18 -55.5t46 -34.5v-6h-128q-27 0 -45.5 -18.5t-18.5 -45.5v-640q0 -26 -19 -45
t-45 -19h-96q-13 0 -22.5 -9.5t-9.5 -22.5t9.5 -22.5t22.5 -9.5h96q53 0 90.5 37.5t37.5 90.5v64h704q27 0 45.5 18.5t18.5 45.5v512q0 27 -19 45.5t-45 18.5zM320 51h-64v64h64v-64zM320 179h-64v64h64v-64zM320 307h-64v64h64v-64zM320 435h-64v64h64v-64zM448 51h-64v64
h64v-64zM448 179h-64v64h64v-64zM448 307h-64v64h64v-64zM448 435h-64v64h64v-64zM576 51h-64v64h64v-64zM576 179h-64v64h64v-64zM576 307h-64v64h64v-64zM576 435h-64v64h64v-64zM704 51h-64v64h64v-64zM704 179h-64v64h64v-64zM704 307h-64v64h64v-64zM704 435h-64v64h64
v-64zM832 51h-64v64h64v-64zM832 179h-64v64h64v-64zM832 307h-64v64h64v-64zM832 435h-64v64h64v-64zM960 51h-64v64h64v-64zM960 179h-64v64h64v-64zM960 307h-64v64h64v-64zM960 435h-64v64h64v-64z" />
</svg>
