<?xml version="1.0" standalone="no"?>
<!DOCTYPE svg PUBLIC "-//W3C//DTD SVG 1.1//EN" "http://www.w3.org/Graphics/SVG/1.1/DTD/svg11.dtd" >
<svg xmlns="http://www.w3.org/2000/svg" xmlns:xlink="http://www.w3.org/1999/xlink" version="1.1" viewBox="-10 0 1044 1024">
   <path fill="currentColor"
d="M992 563h-96v-128h96q13 0 22.5 9.5t9.5 22.5v64q0 13 -9.5 22.5t-22.5 9.5zM992 371h-96v-128h96q13 0 22.5 9.5t9.5 22.5v64q0 13 -9.5 22.5t-22.5 9.5zM992 179h-96v-128h96q13 0 22.5 9.5t9.5 22.5v64q0 13 -9.5 22.5t-22.5 9.5zM768 627h-512q-26 0 -45 -19t-19 -45
v-512q0 -26 18.5 -45t45.5 -19h512q27 0 45.5 19t18.5 45v512q0 27 -18.5 45.5t-45.5 18.5zM640 -173q0 -13 9.5 -22.5t22.5 -9.5h64q13 0 22.5 9.5t9.5 22.5v96h-128v-96zM448 -173q0 -13 9.5 -22.5t22.5 -9.5h64q13 0 22.5 9.5t9.5 22.5v96h-128v-96zM256 -173
q0 -13 9.5 -22.5t22.5 -9.5h64q13 0 22.5 9.5t9.5 22.5v96h-128v-96zM0 531v-64q0 -13 9.5 -22.5t22.5 -9.5h96v128h-96q-13 0 -22.5 -9.5t-9.5 -22.5zM0 339v-64q0 -13 9.5 -22.5t22.5 -9.5h96v128h-96q-13 0 -22.5 -9.5t-9.5 -22.5zM0 147v-64q0 -13 9.5 -22.5t22.5 -9.5
h96v128h-96q-13 0 -22.5 -9.5t-9.5 -22.5zM384 787q0 13 -9.5 22.5t-22.5 9.5h-64q-13 0 -22.5 -9.5t-9.5 -22.5v-96h128v96zM576 787q0 13 -9.5 22.5t-22.5 9.5h-64q-13 0 -22.5 -9.5t-9.5 -22.5v-96h128v96zM768 787q0 13 -9.5 22.5t-22.5 9.5h-64q-13 0 -22.5 -9.5
t-9.5 -22.5v-96h128v96z" />
</svg>
