<?xml version="1.0" standalone="no"?>
<!DOCTYPE svg PUBLIC "-//W3C//DTD SVG 1.1//EN" "http://www.w3.org/Graphics/SVG/1.1/DTD/svg11.dtd" >
<svg xmlns="http://www.w3.org/2000/svg" xmlns:xlink="http://www.w3.org/1999/xlink" version="1.1" viewBox="-10 0 1210 1200">
   <path fill="currentColor"
d="M600 -217q117 0 224 45.5t184.5 123t123 184.5t45.5 224t-45.5 224t-123 184.5t-184.5 123t-224 45.5t-224 -45.5t-184.5 -123t-123 -184.5t-45.5 -224t45.5 -224t123 -184.5t184.5 -123t224 -45.5zM546 337l-84 -85q-7 -7 -17.5 -7t-18.5 7l-139 139q-7 8 -7 18t7 18
l242 241q7 8 17.5 8t17.5 -8l375 -375q7 -7 7 -17.5t-7 -18.5l-139 -139q-7 -7 -17.5 -7t-17.5 7z" />
</svg>
