<?xml version="1.0" standalone="no"?>
<!DOCTYPE svg PUBLIC "-//W3C//DTD SVG 1.1//EN" "http://www.w3.org/Graphics/SVG/1.1/DTD/svg11.dtd" >
<svg xmlns="http://www.w3.org/2000/svg" xmlns:xlink="http://www.w3.org/1999/xlink" version="1.1" viewBox="-10 0 1210 1200">
   <path fill="currentColor"
d="M368 -57l645 -163q39 -15 63 0t24 49v831q0 55 -41.5 95.5t-111.5 63.5q-79 25 -147 4.5t-86 -75t25.5 -111.5t122.5 -82q72 -24 138 -8v-521l-600 155v606q0 42 -44 90t-109 69q-79 26 -147 5.5t-86 -75.5t25.5 -111.5t122.5 -82.5q72 -24 138 -7v-639q0 -38 14.5 -59
t53.5 -34z" />
</svg>
