<?xml version="1.0" standalone="no"?>
<!DOCTYPE svg PUBLIC "-//W3C//DTD SVG 1.1//EN" "http://www.w3.org/Graphics/SVG/1.1/DTD/svg11.dtd" >
<svg xmlns="http://www.w3.org/2000/svg" xmlns:xlink="http://www.w3.org/1999/xlink" version="1.1" viewBox="-10 0 1220 1200">
   <path fill="currentColor"
d="M44 -140h1112q18 0 31 13t13 31v1012q0 18 -13 31t-31 13h-1112q-18 0 -31 -13t-13 -31v-1012q0 -18 13 -31t31 -13zM100 -40v737l247 -182l298 131l-74 -156l293 -318l236 288v-500h-1000zM342 76q56 0 95 39t39 94.5t-39 95t-95 39.5t-95 -39.5t-39 -95t39 -94.5
t95 -39z" />
</svg>
