<?xml version="1.0" standalone="no"?>
<!DOCTYPE svg PUBLIC "-//W3C//DTD SVG 1.1//EN" "http://www.w3.org/Graphics/SVG/1.1/DTD/svg11.dtd" >
<svg xmlns="http://www.w3.org/2000/svg" xmlns:xlink="http://www.w3.org/1999/xlink" version="1.1" viewBox="-10 0 1220 1200">
   <path fill="currentColor"
d="M25 -140h1150q10 0 17.5 7.5t7.5 17.5v1050q0 10 -7.5 17.5t-17.5 7.5h-1150q-10 0 -17.5 -7.5t-7.5 -17.5v-1050q0 -10 7.5 -17.5t17.5 -7.5zM100 -40v100h100v-100h-100zM875 -40h-550q-10 0 -17.5 7.5t-7.5 17.5v350q0 10 7.5 17.5t17.5 7.5h550q10 0 17.5 -7.5
t7.5 -17.5v-350q0 -10 -7.5 -17.5t-17.5 -7.5zM1000 -40v100h100v-100h-100zM100 160v100h100v-100h-100zM1000 160v100h100v-100h-100zM100 360v100h100v-100h-100zM1000 360v100h100v-100h-100zM875 460h-550q-10 0 -17.5 7.5t-7.5 17.5v350q0 10 7.5 17.5t17.5 7.5h550
q10 0 17.5 -7.5t7.5 -17.5v-350q0 -10 -7.5 -17.5t-17.5 -7.5zM100 560v100h100v-100h-100zM1000 560v100h100v-100h-100zM100 760v100h100v-100h-100zM1000 760v100h100v-100h-100z" />
</svg>
