<?xml version="1.0" standalone="no"?>
<!DOCTYPE svg PUBLIC "-//W3C//DTD SVG 1.1//EN" "http://www.w3.org/Graphics/SVG/1.1/DTD/svg11.dtd" >
<svg xmlns="http://www.w3.org/2000/svg" xmlns:xlink="http://www.w3.org/1999/xlink" version="1.1" viewBox="-10 0 1210 1200">
   <path fill="currentColor"
d="M600 -217q117 0 224 45.5t184.5 123t123 184.5t45.5 224t-45.5 224t-123 184.5t-184.5 123t-224 45.5t-224 -45.5t-184.5 -123t-123 -184.5t-45.5 -224t45.5 -224t123 -184.5t184.5 -123t224 -45.5zM650 60h-100q-21 0 -35.5 14.5t-14.5 35.5v150h-150q-21 0 -35.5 14.5
t-14.5 35.5v100q0 21 14.5 35.5t35.5 14.5h150v150q0 21 14.5 35.5t35.5 14.5h100q21 0 35.5 -14.5t14.5 -35.5v-150h150q21 0 35.5 -14.5t14.5 -35.5v-100q0 -21 -14.5 -35.5t-35.5 -14.5h-150v-150q0 -21 -14.5 -35.5t-35.5 -14.5z" />
</svg>
